<?xml version="1.0" encoding="utf-8"?>
<!-- Generator: Adobe Illustrator 21.0.0, SVG Export Plug-In . SVG Version: 6.00 Build 0)  -->
<svg version="1.1" id="arrow" xmlns="http://www.w3.org/2000/svg" xmlns:xlink="http://www.w3.org/1999/xlink" x="0px" y="0px"
	 viewBox="0 0 24 24" style="enable-background:new 0 0 24 24;" xml:space="preserve">
<style type="text/css">
	.st0{display:none;fill:#E2EF09;}
	.st1{fill:#FBFBFB;}
</style>
<path id="circle" class="st0" d="M24,12c0,6.6-5.4,12-12,12S0,18.6,0,12S5.4,0,12,0S24,5.4,24,12z M2,12c0,5.5,4.5,10,10,10
	s10-4.5,10-10S17.5,2,12,2S2,6.5,2,12z"/>
<polygon id="triangle" class="st1" points="18.4,12 13.7,16.7 12.3,15.3 15.6,12 12.3,8.7 13.7,7.3 "/>
<rect id="line" x="6" y="11" transform="matrix(1 -1.043080e-03 1.043080e-03 1 -1.251070e-02 1.200196e-02)" class="st1" width="11" height="2"/>
</svg>
