<?xml version="1.0" encoding="utf-8"?>
<!-- Generator: Adobe Illustrator 21.0.0, SVG Export Plug-In . SVG Version: 6.00 Build 0)  -->
<svg version="1.1" id="arrow" xmlns="http://www.w3.org/2000/svg" xmlns:xlink="http://www.w3.org/1999/xlink" x="0px" y="0px"
	 viewBox="0 0 24 24" style="enable-background:new 0 0 24 24;" xml:space="preserve">
<style type="text/css">
	.st0{display:none;fill:#E2EF09;}
	.st1{fill:#151515;}
</style>
<path id="circle" class="st0" d="M24,12c0,6.6-5.4,12-12,12S0,18.6,0,12S5.4,0,12,0S24,5.4,24,12z M2,12c0,5.5,4.5,10,10,10
	s10-4.5,10-10S17.5,2,12,2S2,6.5,2,12z"/>
<polygon id="triangle" class="st1" points="12.2,18.2 7.5,13.5 8.9,12.1 12.2,15.4 15.5,12.1 16.9,13.5 "/>
<rect id="line" x="11.2" y="5.8" transform="matrix(1 -1.043079e-03 1.043079e-03 1 -1.178069e-02 1.273117e-02)" class="st1" width="2" height="11"/>
</svg>
