<?xml version="1.0" encoding="utf-8"?>
<!-- Generator: Adobe Illustrator 23.0.3, SVG Export Plug-In . SVG Version: 6.00 Build 0)  -->
<svg version="1.1" id="Capa_1" xmlns="http://www.w3.org/2000/svg" xmlns:xlink="http://www.w3.org/1999/xlink" x="0px" y="0px"
	 viewBox="0 0 80.1 70.5" style="enable-background:new 0 0 80.1 70.5;" xml:space="preserve">
<path d="M61.6,18.6c-0.6,0-1.1,0.1-1.7,0.2C56.6,11.2,49.1,5.9,40.3,5.9c-8.8,0-16.3,5.3-19.6,12.9c-0.6-0.1-1.1-0.2-1.7-0.2
	c-7,0-12.8,5.7-12.8,12.8S12,44.1,19.1,44.1c1.4,0,2.6-0.3,3.9-0.7c2.3,2.5,5.4,4.2,8.9,4.7v-4.3c-3.3-0.7-6.1-2.8-7.5-5.8
	c-1.5,1.2-3.3,1.9-5.3,1.9c-4.7,0-8.5-3.8-8.5-8.5c0-4.7,3.8-8.5,8.5-8.5c1.7,0,3.2,0.5,4.5,1.3c1.4-8,8.3-14.1,16.7-14.1
	c8.4,0,15.3,6.1,16.6,14.1c1.3-0.9,2.9-1.4,4.6-1.4c4.7,0,8.5,3.8,8.5,8.5c0,4.7-3.8,8.5-8.5,8.5c-0.7,0-1.3-0.1-2-0.2
	c-1.9,2.7-5.1,4.5-8.7,4.5c-0.7,0-1.4-0.1-2.1-0.3v4.3c0.7,0.1,1.4,0.2,2.1,0.2c4.1,0,7.7-1.6,10.4-4.3c0.1,0,0.1,0,0.2,0
	c7,0,12.8-5.7,12.8-12.7S68.6,18.6,61.6,18.6z M44.6,31.4h-8.5v21.2h-8.5l12.7,12.8l12.8-12.8h-8.5V31.4z"/>
</svg>
