<?xml version="1.0" encoding="utf-8"?>
<!-- Generator: Adobe Illustrator 21.0.0, SVG Export Plug-In . SVG Version: 6.00 Build 0)  -->
<svg version="1.1" id="Capa_1" xmlns="http://www.w3.org/2000/svg" xmlns:xlink="http://www.w3.org/1999/xlink" x="0px" y="0px"
	 viewBox="0 0 800 800" style="enable-background:new 0 0 800 800;" xml:space="preserve">
<style type="text/css">
	.st0{fill:#FBFBFB;}
</style>
<path class="st0" d="M607.5,389L314.2,189c-4.1-2.8-9.4-3.1-13.7-0.8c-4.4,2.3-7.1,6.8-7.1,11.8v400c0,4.9,2.7,9.5,7.1,11.8
	c1.9,1,4.1,1.5,6.2,1.5c2.6,0,5.3-0.8,7.5-2.3l293.3-200c3.6-2.5,5.8-6.6,5.8-11S611.1,391.5,607.5,389z M320,574.8V225.2L576.3,400
	L320,574.8z"/>
<path class="st0" d="M400,0C179.4,0,0,179.4,0,400s179.4,400,400,400s400-179.4,400-400S620.6,0,400,0z M400,773.3
	C194.1,773.3,26.7,605.9,26.7,400S194.1,26.7,400,26.7S773.3,194.1,773.3,400S605.9,773.3,400,773.3z"/>
</svg>
